<?xml version="1.0" ?><svg style="enable-background:new 0 0 64 64;" version="1.1" viewBox="0 0 64 64" xml:space="preserve" xmlns="http://www.w3.org/2000/svg" xmlns:xlink="http://www.w3.org/1999/xlink"><g id="cloudy_sunny"/><g id="bright"/><g id="cloudy"/><g id="high_rainfall"/><g id="windy"/><g id="rain_with_thunder"/><g id="clear_night"/><g id="cloudy_night"/><g id="moon"/><g id="sun"><g><path d="M33.9,61C18,61,5,48,5,32S18,3,33.9,3c10.2,0,19.8,5.5,25,14.4c0.3,0.4,0.1,1-0.3,1.3c-0.4,0.3-1,0.3-1.3-0.1    C53.7,15,49,13,43.9,13c-10.4,0-18.9,8.5-18.9,19s8.5,19,18.9,19c5.1,0,9.9-2,13.4-5.6c0.4-0.4,0.9-0.4,1.3-0.1    c0.4,0.3,0.5,0.9,0.3,1.3C53.7,55.5,44.1,61,33.9,61z M33.9,5C19.1,5,7,17.1,7,32s12.1,27,26.9,27c7.3,0,14.3-3,19.3-8.2    c-2.8,1.4-6,2.2-9.3,2.2c-11.5,0-20.9-9.4-20.9-21s9.4-21,20.9-21c3.3,0,6.4,0.8,9.3,2.2C48.2,8,41.2,5,33.9,5z"/></g></g><g id="rainy_night"/><g id="windy_night"/><g id="night_rain_thunder"/><g id="windy_rain"/><g id="temperature"/><g id="humidity"/><g id="air_pressure"/><g id="low_rainfall"/><g id="moderate_rainfall"/><g id="Sunset"/></svg>